# xmcd
#
# Track frame offsets: 
#        150
#        14997
#        33790
#        40782
#        53752
#        66295
#        93840
#        107229
#        124915
#        134967
#        165592
#        178905
#        194805
#        208267
#        222402
#        237547
#        249402
#        259830
#        268452
#        277602
#        287015
#        307227
#
# Disc length: 4265 seconds
#
# Revision: 3
# Processed by: cddbd v1.5.2PL0 Copyright (c) Steve Scherf et al.
# Submitted via: ExactAudioCopy v0.99pb5
#
DISCID=6910a716
DTITLE=Various Artist - A Taste Of Tradition - Volume 2
DYEAR=1900
DGENRE=Blues
TTITLE0=Sonny Terry and Brownie McGhee - Don't Study War No More
TTITLE1=Big Joe Williams - Razor Sharp Blues
TTITLE2=Big Bill Broonzy - St. Louis Blues
TTITLE3=Blind Lemon Jefferson - That Black Snake Moan #2
TTITLE4=Blind Lemon Jefferson - Balky Mule Blues
TTITLE5=Sonny Terry and Brownie McGhee - Blowin' The Fuses
TTITLE6=Sonny Terry and Brownie McGhee - Walk On
TTITLE7=Jimmy Witherspoon With Groove Holmes - Goin' To Chicago Blues
TTITLE8=Jimmy Witherspoon With Groove Holmes - Loser's Blues
TTITLE9=Big Joe Williams - Blues For Gamblers
TTITLE10=Big Joe Williams - Great Gospel Blues (Right On That Shore)
TTITLE11=Mississippi Fred McDowell - Good Morning Little Schoolgirl
TTITLE12=Mississippi Fred McDowell - Got To Move
TTITLE13=Lead Belly - The Gallis Pole
TTITLE14=Lead Belly - The Bourgeois Blues
TTITLE15=Woody Guthrie - John Henry
TTITLE16=Woody Guthrie - More Pretty Gals Than One
TTITLE17=Eric Weissberg and Marshall Brickman - Feuding Banjos
TTITLE18=Mason Williams - Whistle While You Work
TTITLE19=Mike Seeger - Holston Valley Breakdown
TTITLE20=Bernarbe de Moron - Gitaneria Morisca
TTITLE21=Bernarbe de Moron - Sevillanas Trianeras
EXTD=
EXTT0=
EXTT1=
EXTT2=
EXTT3=
EXTT4=
EXTT5=
EXTT6=
EXTT7=
EXTT8=
EXTT9=
EXTT10=
EXTT11=
EXTT12=
EXTT13=
EXTT14=
EXTT15=
EXTT16=
EXTT17=
EXTT18=
EXTT19=
EXTT20=
EXTT21=
PLAYORDER=
